<?xml version="1.0" encoding="UTF-8" standalone="no"?>
<!-- Created with Inkscape (http://www.inkscape.org/) -->

<svg
   version="1.1"
   id="svg9"
   width="1000"
   height="15000"
   viewBox="0 0 1000 15000"
   sodipodi:docname="background_banner.svg"
   inkscape:version="1.2.1 (9c6d41e410, 2022-07-14)"
   xmlns:inkscape="http://www.inkscape.org/namespaces/inkscape"
   xmlns:sodipodi="http://sodipodi.sourceforge.net/DTD/sodipodi-0.dtd"
   xmlns="http://www.w3.org/2000/svg"
   xmlns:svg="http://www.w3.org/2000/svg">
  <defs
     id="defs13">
    <clipPath
       clipPathUnits="userSpaceOnUse"
       id="clipPath628">
      <g
         id="g632"
         transform="translate(-694.4069,-456.5791)">
        <path
           d="M 0,0 H 750 V 500 H 0 Z"
           id="path630" />
      </g>
    </clipPath>
    <clipPath
       clipPathUnits="userSpaceOnUse"
       id="clipPath634">
      <g
         id="g638"
         transform="translate(-390.7076,-43.7715)">
        <path
           d="M 0,0 H 750 V 500 H 0 Z"
           id="path636" />
      </g>
    </clipPath>
    <clipPath
       clipPathUnits="userSpaceOnUse"
       id="clipPath640">
      <g
         id="g644"
         transform="translate(-222.4977,-407.4819)">
        <path
           d="M 0,0 H 750 V 500 H 0 Z"
           id="path642" />
      </g>
    </clipPath>
    <clipPath
       clipPathUnits="userSpaceOnUse"
       id="clipPath646">
      <g
         id="g650"
         transform="translate(-465.0094,-540.4443)">
        <path
           d="M 0,0 H 750 V 500 H 0 Z"
           id="path648" />
      </g>
    </clipPath>
    <clipPath
       clipPathUnits="userSpaceOnUse"
       id="clipPath664">
      <g
         id="g668"
         transform="translate(-630.9108,-509.2036)">
        <path
           d="M 0,0 H 750 V 500 H 0 Z"
           id="path666" />
      </g>
    </clipPath>
    <clipPath
       clipPathUnits="userSpaceOnUse"
       id="clipPath682">
      <g
         id="g686"
         transform="translate(-94.1871,-107.9287)">
        <path
           d="M 0,0 H 750 V 500 H 0 Z"
           id="path684" />
      </g>
    </clipPath>
    <clipPath
       clipPathUnits="userSpaceOnUse"
       id="clipPath688">
      <g
         id="g692"
         transform="translate(-729.0963,-374.7886)">
        <path
           d="M 0,0 H 750 V 500 H 0 Z"
           id="path690" />
      </g>
    </clipPath>
    <clipPath
       clipPathUnits="userSpaceOnUse"
       id="clipPath694">
      <g
         id="g698"
         transform="translate(-464.4146,-379.812)">
        <path
           d="M 0,0 H 750 V 500 H 0 Z"
           id="path696" />
      </g>
    </clipPath>
    <clipPath
       clipPathUnits="userSpaceOnUse"
       id="clipPath700">
      <g
         id="g704"
         transform="translate(-179.3443,-299.7837)">
        <path
           d="M 0,0 H 750 V 500 H 0 Z"
           id="path702" />
      </g>
    </clipPath>
    <clipPath
       clipPathUnits="userSpaceOnUse"
       id="clipPath706">
      <g
         id="g710"
         transform="translate(76.9506,-56.0859)">
        <path
           d="M 0,0 H 750 V 500 H 0 Z"
           id="path708" />
      </g>
    </clipPath>
    <clipPath
       clipPathUnits="userSpaceOnUse"
       id="clipPath718">
      <g
         id="g722"
         transform="translate(13.474,-82.958)">
        <path
           d="M 0,0 H 750 V 500 H 0 Z"
           id="path720" />
      </g>
    </clipPath>
    <clipPath
       clipPathUnits="userSpaceOnUse"
       id="clipPath724">
      <g
         id="g728"
         transform="translate(-418.6305,-442.3745)">
        <path
           d="M 0,0 H 750 V 500 H 0 Z"
           id="path726" />
      </g>
    </clipPath>
    <clipPath
       clipPathUnits="userSpaceOnUse"
       id="clipPath730">
      <g
         id="g734"
         transform="translate(-645.901,-364.375)">
        <path
           d="M 0,0 H 750 V 500 H 0 Z"
           id="path732" />
      </g>
    </clipPath>
    <clipPath
       clipPathUnits="userSpaceOnUse"
       id="clipPath736">
      <g
         id="g740"
         transform="translate(-660.2252,-315.626)">
        <path
           d="M 0,0 H 750 V 500 H 0 Z"
           id="path738" />
      </g>
    </clipPath>
    <clipPath
       clipPathUnits="userSpaceOnUse"
       id="clipPath742">
      <g
         id="g746"
         transform="translate(-240.2789,-95.5781)">
        <path
           d="M 0,0 H 750 V 500 H 0 Z"
           id="path744" />
      </g>
    </clipPath>
    <clipPath
       clipPathUnits="userSpaceOnUse"
       id="clipPath748">
      <g
         id="g752"
         transform="translate(-514.3385,-317.8701)">
        <path
           d="M 0,0 H 750 V 500 H 0 Z"
           id="path750" />
      </g>
    </clipPath>
    <clipPath
       clipPathUnits="userSpaceOnUse"
       id="clipPath754">
      <g
         id="g758"
         transform="translate(-514.3385,-334.3589)">
        <path
           d="M 0,0 H 750 V 500 H 0 Z"
           id="path756" />
      </g>
    </clipPath>
    <clipPath
       clipPathUnits="userSpaceOnUse"
       id="clipPath760">
      <g
         id="g764"
         transform="translate(-498.2789,-317.8701)">
        <path
           d="M 0,0 H 750 V 500 H 0 Z"
           id="path762" />
      </g>
    </clipPath>
    <clipPath
       clipPathUnits="userSpaceOnUse"
       id="clipPath766">
      <g
         id="g770"
         transform="translate(-498.2789,-334.3589)">
        <path
           d="M 0,0 H 750 V 500 H 0 Z"
           id="path768" />
      </g>
    </clipPath>
    <clipPath
       clipPathUnits="userSpaceOnUse"
       id="clipPath772">
      <g
         id="g776"
         transform="translate(-65.7506,-396.0742)">
        <path
           d="M 0,0 H 750 V 500 H 0 Z"
           id="path774" />
      </g>
    </clipPath>
    <clipPath
       clipPathUnits="userSpaceOnUse"
       id="clipPath778">
      <g
         id="g782"
         transform="translate(-419.4371,-387.9541)">
        <path
           d="M 0,0 H 750 V 500 H 0 Z"
           id="path780" />
      </g>
    </clipPath>
    <clipPath
       clipPathUnits="userSpaceOnUse"
       id="clipPath784">
      <g
         id="g788"
         transform="translate(-219.984,-305.8091)">
        <path
           d="M 0,0 H 750 V 500 H 0 Z"
           id="path786" />
      </g>
    </clipPath>
    <clipPath
       clipPathUnits="userSpaceOnUse"
       id="clipPath790">
      <g
         id="g794"
         transform="translate(-207.0172,-305.8091)">
        <path
           d="M 0,0 H 750 V 500 H 0 Z"
           id="path792" />
      </g>
    </clipPath>
    <clipPath
       clipPathUnits="userSpaceOnUse"
       id="clipPath796">
      <g
         id="g800"
         transform="translate(-604.9899,-90.5146)">
        <path
           d="M 0,0 H 750 V 500 H 0 Z"
           id="path798" />
      </g>
    </clipPath>
    <clipPath
       clipPathUnits="userSpaceOnUse"
       id="clipPath802">
      <g
         id="g806"
         transform="translate(-585.0553,-90.5146)">
        <path
           d="M 0,0 H 750 V 500 H 0 Z"
           id="path804" />
      </g>
    </clipPath>
    <clipPath
       clipPathUnits="userSpaceOnUse"
       id="clipPath814">
      <g
         id="g818"
         transform="translate(-21.2496,-297.5498)">
        <path
           d="M 0,0 H 750 V 500 H 0 Z"
           id="path816" />
      </g>
    </clipPath>
    <clipPath
       clipPathUnits="userSpaceOnUse"
       id="clipPath820">
      <g
         id="g824"
         transform="translate(-242.6793,-185.0625)">
        <path
           d="M 0,0 H 750 V 500 H 0 Z"
           id="path822" />
      </g>
    </clipPath>
    <clipPath
       clipPathUnits="userSpaceOnUse"
       id="clipPath826">
      <g
         id="g830"
         transform="translate(-224.6559,-167.0381)">
        <path
           d="M 0,0 H 750 V 500 H 0 Z"
           id="path828" />
      </g>
    </clipPath>
    <clipPath
       clipPathUnits="userSpaceOnUse"
       id="clipPath832">
      <g
         id="g836"
         transform="translate(-710.525,-205.4668)">
        <path
           d="M 0,0 H 750 V 500 H 0 Z"
           id="path834" />
      </g>
    </clipPath>
    <clipPath
       clipPathUnits="userSpaceOnUse"
       id="clipPath838">
      <g
         id="g842"
         transform="translate(-232.1627,-389.1636)">
        <path
           d="M 0,0 H 750 V 500 H 0 Z"
           id="path840" />
      </g>
    </clipPath>
    <clipPath
       clipPathUnits="userSpaceOnUse"
       id="clipPath844">
      <g
         id="g848"
         transform="translate(-698.4459,0.1494)">
        <path
           d="M 0,0 H 750 V 500 H 0 Z"
           id="path846" />
      </g>
    </clipPath>
    <clipPath
       clipPathUnits="userSpaceOnUse"
       id="clipPath850">
      <g
         id="g854"
         transform="translate(-189.4225,-499.792)">
        <path
           d="M 0,0 H 750 V 500 H 0 Z"
           id="path852" />
      </g>
    </clipPath>
    <clipPath
       clipPathUnits="userSpaceOnUse"
       id="clipPath856">
      <g
         id="g860"
         transform="translate(-249.2428,-499.0806)">
        <path
           d="M 0,0 H 750 V 500 H 0 Z"
           id="path858" />
      </g>
    </clipPath>
    <clipPath
       clipPathUnits="userSpaceOnUse"
       id="clipPath878">
      <g
         id="g884">
        <g
           id="g882">
          <path
             d="M 0,0 H 750 V 500 H 0 Z"
             id="path880" />
        </g>
      </g>
    </clipPath>
    <clipPath
       clipPathUnits="userSpaceOnUse"
       id="clipPath1133">
      <g
         id="g1139">
        <g
           id="g1137">
          <path
             d="M 0,0 H 750 V 500 H 0 Z"
             id="path1135" />
        </g>
      </g>
    </clipPath>
    <clipPath
       clipPathUnits="userSpaceOnUse"
       id="clipPath1170">
      <g
         id="g1176">
        <g
           id="g1174">
          <path
             d="M 0,0 H 750 V 500 H 0 Z"
             id="path1172" />
        </g>
      </g>
    </clipPath>
    <clipPath
       clipPathUnits="userSpaceOnUse"
       id="clipPath1422">
      <g
         id="g1428">
        <g
           id="g1426">
          <path
             d="M 0,0 H 750 V 500 H 0 Z"
             id="path1424" />
        </g>
      </g>
    </clipPath>
    <clipPath
       clipPathUnits="userSpaceOnUse"
       id="clipPath1459">
      <g
         id="g1465">
        <g
           id="g1463">
          <path
             d="M 0,0 H 750 V 500 H 0 Z"
             id="path1461" />
        </g>
      </g>
    </clipPath>
    <clipPath
       clipPathUnits="userSpaceOnUse"
       id="clipPath1496">
      <g
         id="g1502">
        <g
           id="g1500">
          <path
             d="M 0,0 H 750 V 500 H 0 Z"
             id="path1498" />
        </g>
      </g>
    </clipPath>
  </defs>
  <sodipodi:namedview
     id="namedview11"
     pagecolor="#ffffff"
     bordercolor="#000000"
     borderopacity="0.25"
     inkscape:showpageshadow="2"
     inkscape:pageopacity="0.0"
     inkscape:pagecheckerboard="0"
     inkscape:deskcolor="#d1d1d1"
     showgrid="false"
     inkscape:zoom="0.82649999"
     inkscape:cx="331.51845"
     inkscape:cy="623.1095"
     inkscape:window-width="2560"
     inkscape:window-height="1334"
     inkscape:window-x="-11"
     inkscape:window-y="-11"
     inkscape:window-maximized="1"
     inkscape:current-layer="g17">
    <inkscape:page
       x="0"
       y="0"
       id="page15"
       width="1000"
       height="15000" />
  </sodipodi:namedview>
  <g
     id="g17"
     inkscape:groupmode="layer"
     inkscape:label="Page 1"
     transform="matrix(1.3333333,0,0,-1.3333333,0,666.66667)"
     style="display:inline">
    <path
       d="M -1.3096234,65.902903 80.660377,147.8729 c 18.377,18.377 48.171993,18.377 66.549993,0 v 0 c 18.376,-18.377 18.376,-48.171997 0,-66.548997 l -37.33299,-37.333 c -8.069,-8.068 -8.069,-21.15 0,-29.217 8.06799,-8.068 21.14799,-8.068 29.21599,0 l 8.117,8.115 c 16.584,16.585 43.472,16.585 60.056,0 16.584,-16.584 16.584,-43.472001 0,-60.055999 l -33.275,-33.275 c -3.585,-3.586 -3.585,-9.399 0,-12.985 3.586,-3.586 9.4,-3.586 12.985,0 l 81.158,81.157999 c 14.344,14.343 37.599,14.343 51.942,0 14.343,-14.344 14.343,-37.598999 0,-51.940999 l -21.913,-21.913 c -3.138,-3.138 -3.138,-8.225 0,-11.363 3.137,-3.136 8.224,-3.136 11.362,0 l 1.817,1.818 c 38.44,38.44 101.87423,39.51905 139.204,0 65.64592,-69.495864 -13.21426,-149.724814 -13.21426,-149.724814 L -61.185603,-731.48662 -119.79963,-123.1951 c 0,0 125.7950075,181.794003 118.4900066,189.098003"
       style="fill:#c0f0e6;fill-opacity:1;fill-rule:nonzero;stroke:none"
       id="path61-4"
       sodipodi:nodetypes="csssccccccsccccccscccscccc" />
    <path
       d="m 250.6255,501.67644 26.223,-26.223 c 18.181,-18.182 47.661,-18.181 65.841,0.003 l 15.021,15.023 c 3.171,3.171 8.311,3.171 11.481,0 l 0.149,-0.148 c 3.297,-3.297 3.302,-8.591 0.033,-11.858 -5.035,-5.034 -39.839,-39.837 -47.669,-47.666 -16.584,-16.583 -16.585,-43.471 -10e-4,-60.055 16.583,-16.583 43.471,-16.583 60.054,0 l 145.482,145.483 32.033,-4.365 -52.96,-52.96 c -23.117,-23.117 -23.117,-60.596 0,-83.713 23.116,-23.116 60.595,-23.116 83.711,0 l 80.983,80.983 c 3.518,3.517 9.222,3.517 12.739,0 3.518,-3.518 3.518,-9.221 0,-12.739 l -119.927,-119.927 c -13.066,-13.066 -13.066,-34.25 0,-47.316 13.066,-13.065 34.249,-13.065 47.316,0 l 83.075,83.076 c 3.77,3.769 9.88,3.769 13.648,0 3.77,-3.769 3.77,-9.88 0,-13.649 l -1.454,-1.454 c -27.589,-27.59 -27.589,-72.322 0,-99.912 l 61.96401,-61.963 v 359.383"
       style="display:inline;fill:#a5e4dc;fill-opacity:1;fill-rule:nonzero;stroke:none"
       id="path29" />
    <path
       d="m 424.12337,-308.9946 c -31.034,0 -56.183,25.147 -56.183,56.169 0,31.021 25.149,56.169 56.183,56.169 31.022,0 56.169,-25.148 56.169,-56.169 0,-31.022 -25.147,-56.169 -56.169,-56.169 m 0,126.125 c -38.576,0 -69.97,-31.38 -69.97,-69.956 0,-38.577 31.394,-69.97 69.97,-69.97 38.577,0 69.957,31.393 69.957,69.97 0,38.576 -31.38,69.956 -69.957,69.956"
       style="fill:#a5e4dc;fill-opacity:1;fill-rule:nonzero;stroke:none"
       id="path245-5" />
    <path
       d="M 306.86132,-143.58296 451.54032,1.096033"
       style="fill:#ffb2a6;fill-opacity:1;stroke:#fa9191;stroke-width:3;stroke-linecap:round;stroke-linejoin:miter;stroke-miterlimit:10;stroke-dasharray:none;stroke-opacity:1"
       id="path257-3" />
    <path
       d="m 101.05222,-62.354299 c 4.329,4.383 11.392,4.399 15.748,0.044 4.336,-4.337 4.336,-11.368 0,-15.704001 l -16.802995,-16.804 c -2.176,-2.175 -2.176,-5.702 0,-7.878 2.174995,-2.175 5.701995,-2.175 7.877995,0 l 7.003,7.003 c 4.753,4.754 12.461,4.754 17.215,0 4.752,-4.754 4.752,-12.461 0,-17.215 -83.92983,-84.26071 -168.612064,-167.77661 -253.01053,-251.5692 l -0.10812,80.20721"
       style="fill:#a5e4dc;fill-opacity:1;fill-rule:nonzero;stroke:none"
       id="path249-2"
       sodipodi:nodetypes="ccccscccccc" />
    <path
       d="m 261.55879,-15.838627 c 0,-4.305002 -3.49,-7.794002 -7.795,-7.794002 -4.305,0 -7.794,3.489 -7.794,7.794002 0,4.305 3.489,7.795 7.794,7.795 4.305,0 7.795,-3.49 7.795,-7.795"
       style="display:inline;fill:#fa9191;fill-opacity:1;fill-rule:nonzero;stroke:none"
       id="path201" />
    <path
       d="m 664.84087,317.9508 c 0,-4.305 -3.489,-7.794 -7.794,-7.794 -4.305,0 -7.794,3.489 -7.794,7.794 0,4.305 3.489,7.794 7.794,7.794 4.305,0 7.794,-3.489 7.794,-7.794"
       style="display:inline;fill:#fa9191;fill-opacity:1;fill-rule:nonzero;stroke:none"
       id="path205" />
    <path
       d="m 650.51668,366.6998 127.182,127.182"
       style="display:inline;fill:none;stroke:#ffffff;stroke-width:3;stroke-linecap:round;stroke-linejoin:miter;stroke-miterlimit:10;stroke-dasharray:none;stroke-opacity:1"
       id="path209" />
    <path
       d="m 423.24618,444.6993 66.593,66.593"
       style="display:inline;fill:none;stroke:#ffffff;stroke-width:3;stroke-linecap:round;stroke-linejoin:miter;stroke-miterlimit:10;stroke-dasharray:none;stroke-opacity:1"
       id="path213" />
    <path
       d="M 2.0309725,-33.591991 131.28897,95.666013"
       style="display:inline;fill:none;stroke:#ffffff;stroke-width:3;stroke-linecap:round;stroke-linejoin:miter;stroke-miterlimit:10;stroke-dasharray:none;stroke-opacity:1"
       id="path217" />
    <path
       d="M -83.89762,-74.914971 45.360383,54.343033"
       style="display:inline;fill:none;stroke:#ffffff;stroke-width:3;stroke-linecap:round;stroke-linejoin:miter;stroke-miterlimit:10;stroke-dasharray:none;stroke-opacity:1"
       id="path217-1" />
    <path
       d="m 139.80827,-191.6531 115.855,115.853995"
       style="display:inline;fill:none;stroke:#ffffff;stroke-width:3;stroke-linecap:round;stroke-linejoin:miter;stroke-miterlimit:10;stroke-dasharray:none;stroke-opacity:1"
       id="path221-5" />
    <path
       d="m 194.84927,183.23372 c 0,-8.697 -7.051,-15.748 -15.748,-15.748 -8.697,0 -15.747,7.051 -15.747,15.748 0,8.697 7.05,15.748 15.747,15.748 8.697,0 15.748,-7.051 15.748,-15.748"
       style="display:inline;fill:#c0f0e6;fill-opacity:1;fill-rule:nonzero;stroke:none"
       id="path229" />
    <path
       d="m 469.03028,382.1368 c 0,-4.598 -3.727,-8.324 -8.324,-8.324 -4.597,0 -8.324,3.726 -8.324,8.324 0,4.597 3.727,8.324 8.324,8.324 4.597,0 8.324,-3.727 8.324,-8.324"
       style="display:inline;fill:#a5e4dc;fill-opacity:1;fill-rule:nonzero;stroke:none"
       id="path233" />
    <path
       d="m 733.71198,377.1134 c 0,-4.597 -3.727,-8.324 -8.324,-8.324 -4.597,0 -8.323,3.727 -8.323,8.324 0,4.597 3.726,8.324 8.323,8.324 4.597,0 8.324,-3.727 8.324,-8.324"
       style="display:inline;fill:#f9f3ea;fill-opacity:1;fill-rule:nonzero;stroke:none"
       id="path237" />
    <path
       d="m 107.12544,-5.412997 c 0,-11.297 -9.156999,-20.455002 -20.453999,-20.455002 -11.297,0 -20.454,9.158002 -20.454,20.455002 0,11.297 9.157,20.454 20.454,20.454 11.297,0 20.453999,-9.157 20.453999,-20.454"
       style="display:inline;fill:#ffffff;fill-opacity:1;fill-rule:nonzero;stroke:none"
       id="path241" />
    <path
       d="m 635.52648,511.52839 -60.896,-60.895 c -5.651,-5.651 -5.651,-14.814 0,-20.466 5.652,-5.652 14.815,-5.652 20.466,0 l 32.545,32.545 c 1.946,1.945 5.1,1.945 7.046,0 1.945,-1.946 1.945,-5.101 0,-7.046 l -11.072,-11.072 c -3.058,-3.058 -3.058,-8.015 0,-11.072 3.057,-3.057 8.015,-3.057 11.072,0 l 29.839,29.839 c 6.691,6.692 16.752,7.961 24.722,3.808 1.864,-0.973 3.615,-2.242 5.18,-3.808 l 0.819,-0.817 58.043,58.043 c 0,0 -117.764,-8.388 -117.764,-9.059"
       style="display:inline;fill:#c0f0e6;fill-opacity:1;fill-rule:nonzero;stroke:none"
       id="path253" />
    <path
       d="m 469.62508,542.76909 -117.183,-117.183"
       style="display:inline;fill:none;stroke:#fa9191;stroke-width:3;stroke-linecap:round;stroke-linejoin:miter;stroke-miterlimit:10;stroke-dasharray:none;stroke-opacity:1"
       id="path265" />
    <path
       d="m 406.21257,-72.778487 28.212,28.211"
       style="display:inline;fill:#ffb2a6;fill-opacity:1;stroke:#fa9191;stroke-width:3;stroke-linecap:round;stroke-linejoin:miter;stroke-miterlimit:10;stroke-dasharray:none;stroke-opacity:1"
       id="path273" />
    <path
       d="m 699.02258,458.9039 -4.594,4.458 c 0,0 49.268,55.729 50.424,56.885 1.156,1.156 35.495,-3.741 35.495,-3.741 l -54.74,-57.12 c -7.193,-7.506 -19.123,-7.723 -26.585,-0.482"
       style="display:inline;fill:#c0f0e6;fill-opacity:1;fill-rule:nonzero;stroke:none"
       id="path277" />
    <path
       d="m 190.8052,502.38783 c 0,-35.861 -29.071,-64.932 -64.932,-64.932 -35.861001,0 -64.932001,29.071 -64.932001,64.932 0,35.861 29.071,64.932 64.932001,64.932 35.861,0 64.932,-29.071 64.932,-64.932"
       style="display:inline;fill:#ffd31d;fill-opacity:1;fill-rule:nonzero;stroke:none"
       id="path33" />
    <path
       d="m 699.8286,2.4464368 c 0,-22.5009998 -18.241,-40.7429998 -40.743,-40.7429998 -22.502,0 -40.743,18.242 -40.743,40.7429998 0,22.5020002 18.241,40.7430022 40.743,40.7430022 22.502,0 40.743,-18.241002 40.743,-40.7430022"
       style="display:inline;fill:#ffd31d;fill-opacity:1;fill-rule:nonzero;stroke:none"
       id="path37" />
    <path
       d="m 233.5454,391.75944 c -16.553,0 -29.966,13.413 -29.966,29.958 0,16.546 13.413,29.959 29.966,29.959 16.545,0 29.958,-13.413 29.958,-29.959 0,-16.545 -13.413,-29.958 -29.958,-29.958 m 0,67.271 c -20.575,0 -37.319,-16.737 -37.319,-37.313 0,-20.575 16.744,-37.319 37.319,-37.319 20.575,0 37.312,16.744 37.312,37.319 0,20.576 -16.737,37.313 -37.312,37.313"
       style="display:inline;fill:#a5e4dc;fill-opacity:1;fill-rule:nonzero;stroke:none"
       id="path41" />
    <path
       d="m 711.9077,208.06264 c 0,-9.7 -7.863,-17.563 -17.563,-17.563 -9.701,0 -17.564,7.863 -17.564,17.563 0,9.7 7.863,17.563 17.564,17.563 9.7,0 17.563,-7.863 17.563,-17.563"
       style="display:inline;fill:#ffd31d;fill-opacity:1;fill-rule:nonzero;stroke:none"
       id="path45" />
    <path
       d="m 236.92789,50.759163 c 0,-4.649 -3.769,-8.418 -8.418,-8.418 -4.649,0 -8.418,3.769 -8.418,8.418 0,4.649 3.769,8.419 8.418,8.419 4.649,0 8.418,-3.77 8.418,-8.419"
       style="display:inline;fill:#ffd31d;fill-opacity:1;fill-rule:nonzero;stroke:none"
       id="path49" />
    <path
       d="m 254.95129,68.783563 c 0,-4.649 -3.769,-8.419 -8.418,-8.419 -4.649,0 -8.418,3.77 -8.418,8.419 0,4.648 3.769,8.418 8.418,8.418 4.649,0 8.418,-3.77 8.418,-8.418"
       style="display:inline;fill:#ffd31d;fill-opacity:1;fill-rule:nonzero;stroke:none"
       id="path53" />
    <path
       d="m 22.632299,300.14564 c 0,-9.7 -7.863,-17.564 -17.5629999,-17.564 -9.7010001,0 -17.5640001,7.864 -17.5640001,17.564 0,9.7 7.863,17.563 17.5640001,17.563 9.6999999,0 17.5629999,-7.863 17.5629999,-17.563"
       style="display:inline;fill:#ffd31d;fill-opacity:1;fill-rule:nonzero;stroke:none"
       id="path57" />
    <path
       d="m 586.438,93.110439 v 0 c 1.759,1.759 4.611,1.759 6.37,0 l 13.565,-13.564 c 1.759,-1.759 1.759,-4.612 0,-6.372 -1.759,-1.758 -4.612,-1.758 -6.372,0 l -13.563,13.565 c -1.76,1.759 -1.76,4.611 0,6.371"
       style="display:inline;fill:#fa9191;fill-opacity:1;fill-rule:nonzero;stroke:none"
       id="path65" />
    <path
       d="m 606.3726,93.110439 v 0 c 1.76,-1.76 1.76,-4.612 0,-6.371 l -13.564,-13.565 c -1.759,-1.758 -4.612,-1.758 -6.371,0 -1.759,1.76 -1.759,4.613 0,6.372 l 13.564,13.564 c 1.76,1.759 4.612,1.759 6.371,0"
       style="display:inline;fill:#fa9191;fill-opacity:1;fill-rule:nonzero;stroke:none"
       id="path69" />
    <path
       d="m 69.56142,212.21619 v 0 c 1.145,1.145 3,1.145 4.144,0 l 8.823,-8.822 c 1.143,-1.145 1.143,-3 0,-4.144 -1.145,-1.144 -3,-1.144 -4.145,0 l -8.822,8.822 c -1.145,1.144 -1.145,3 0,4.144"
       style="display:inline;fill:#fa9191;fill-opacity:1;fill-rule:nonzero;stroke:none"
       id="path73" />
    <path
       d="m 227.11338,409.8067 -29.39,-29.39"
       style="display:inline;fill:#ffb2a6;stroke:#fa9191;stroke-width:3;stroke-linecap:round;stroke-linejoin:miter;stroke-miterlimit:10;stroke-dasharray:none;stroke-opacity:1;fill-opacity:1"
       id="path269" />
    <path
       d="m 82.52822,212.21619 v 0 c 1.144,-1.144 1.144,-3 0,-4.144 l -8.823,-8.822 c -1.144,-1.144 -2.999,-1.144 -4.144,0 -1.144,1.144 -1.144,2.999 0,4.144 l 8.822,8.822 c 1.145,1.145 3,1.145 4.145,0"
       style="display:inline;fill:#fa9191;fill-opacity:1;fill-rule:nonzero;stroke:none"
       id="path77" />
    <path
       d="m 420.8198,390.54994 c 0,-10.54 -8.544,-19.083 -19.084,-19.083 -10.539,0 -19.083,8.543 -19.083,19.083 0,10.54 8.544,19.083 19.083,19.083 10.54,0 19.084,-8.543 19.084,-19.083"
       style="display:inline;fill:#fa9191;fill-opacity:1;fill-rule:nonzero;stroke:none"
       id="path81" />
    <path
       d="m 67.133289,398.67004 c 0,-5.85 -4.742,-10.592 -10.591,-10.592 -5.849,0 -10.592,4.742 -10.592,10.592 0,5.849 4.743,10.591 10.592,10.591 5.849,0 10.591,-4.742 10.591,-10.591"
       style="display:inline;fill:#fa9191;fill-opacity:1;fill-rule:nonzero;stroke:none"
       id="path85" />
    <path
       d="m 499.6616,336.95474 c 0,-1.743 -1.412,-3.156 -3.155,-3.156 -1.743,0 -3.157,1.413 -3.157,3.156 0,1.743 1.414,3.156 3.157,3.156 1.743,0 3.155,-1.413 3.155,-3.156"
       style="display:inline;fill:#fa9191;fill-opacity:1;fill-rule:nonzero;stroke:none"
       id="path89" />
    <path
       d="m 499.6616,320.46594 c 0,-1.743 -1.412,-3.156 -3.155,-3.156 -1.743,0 -3.157,1.413 -3.157,3.156 0,1.743 1.414,3.156 3.157,3.156 1.743,0 3.155,-1.413 3.155,-3.156"
       style="display:inline;fill:#fa9191;fill-opacity:1;fill-rule:nonzero;stroke:none"
       id="path93" />
    <path
       d="m 515.7212,336.63391 c 0,-1.743 -1.413,-3.156 -3.156,-3.156 -1.743,0 -3.157,1.413 -3.157,3.156 0,1.743 1.414,3.156 3.157,3.156 1.743,0 3.156,-1.413 3.156,-3.156"
       style="display:inline;fill:#fa9191;fill-opacity:1;fill-rule:nonzero;stroke:none"
       id="path97" />
    <path
       d="m 515.7212,320.46594 c 0,-1.743 -1.413,-3.156 -3.156,-3.156 -1.743,0 -3.157,1.413 -3.157,3.156 0,1.743 1.414,3.156 3.157,3.156 1.743,0 3.156,-1.413 3.156,-3.156"
       style="display:inline;fill:#fa9191;fill-opacity:1;fill-rule:nonzero;stroke:none"
       id="path101" />
    <path
       d="m 195.50578,-365.13429 7.003,7.003 c 4.753,4.754 12.461,4.754 17.215,0 4.752,-4.754 4.752,-12.461 0,-17.215 -83.92984,-84.26072 -168.612074,-170.9849 -253.010534,-254.77749 l -5.883039,26.30796"
       style="display:inline;fill:#a5e4dc;fill-opacity:1;fill-rule:nonzero;stroke:none"
       id="path249-2-5"
       sodipodi:nodetypes="cccccc" />
    <path
       d="m 284.37538,-225.39987 7.003,7.003 c 4.753,4.754 12.461,4.754 17.215,0 4.752,-4.754 4.752,-12.461 0,-17.215 -83.92984,-84.26072 -264.860734,-260.81698 -349.259196,-344.60957 l 1.175194,34.64951"
       style="display:inline;fill:#a5e4dc;fill-opacity:1;fill-rule:nonzero;stroke:none"
       id="path249-2-5-8"
       sodipodi:nodetypes="cccccc" />
    <path
       d="m 406.38909,-377.31419 c 0,-7.92807 -6.42664,-14.35471 -14.35471,-14.35471 -7.92889,0 -14.35553,6.42664 -14.35553,14.35471 0,7.92807 6.42664,14.35471 14.35553,14.35471 7.92807,0 14.35471,-6.42664 14.35471,-14.35471"
       style="display:inline;fill:#ffd047;fill-opacity:1;fill-rule:nonzero;stroke:none;stroke-width:0.817327"
       id="path45-4" />
  </g>
</svg>
